<svg width="155" height="155" viewBox="0 0 155 155" fill="none" xmlns="http://www.w3.org/2000/svg">
<path d="M73.8162 150.845H9.6006L9.50537 150.826C10.8321 144.243 12.9074 137.833 15.6909 131.722L15.7149 131.591C20.6105 132.479 29.3866 128.735 39.7801 125.058C51.0951 121.059 53.2808 120.052 53.2808 120.052C53.7075 119.627 54.0059 119.09 54.1417 118.503L54.374 118.533H60.8498C60.8498 118.533 62.3565 120.822 64.3874 124.629C67.5727 130.6 72.0525 140.312 74.0377 150.799L73.8162 150.845Z" fill="black"/>
<path d="M131.849 26.4066V29.8497H109V26.4066H115.91H131.849Z" fill="black"/>
<path d="M101.202 32.3289L108.24 40.858H101.202V32.3289Z" fill="black"/>
<path d="M117.703 12.2788C117.703 12.5602 117.759 12.8388 117.866 13.0987C117.974 13.3586 118.132 13.5948 118.331 13.7937C118.53 13.9926 118.766 14.1504 119.026 14.2581C119.286 14.3658 119.564 14.4212 119.845 14.4212C120.127 14.4212 120.405 14.3658 120.665 14.2581C120.925 14.1504 121.161 13.9926 121.36 13.7937C121.559 13.5948 121.717 13.3586 121.825 13.0987C121.932 12.8388 121.988 12.5602 121.988 12.2788C121.988 11.9975 121.932 11.7189 121.825 11.459C121.717 11.1991 121.559 10.9629 121.36 10.764C121.161 10.565 120.925 10.4072 120.665 10.2996C120.405 10.1919 120.127 10.1365 119.845 10.1365C119.564 10.1365 119.286 10.1919 119.026 10.2996C118.766 10.4072 118.53 10.565 118.331 10.764C118.132 10.9629 117.974 11.1991 117.866 11.459C117.759 11.7189 117.703 11.9975 117.703 12.2788Z" fill="#DFCBA9"/>
<path d="M131.849 21.0404V26.4059H115.911C116.615 24.7347 117.417 23.106 118.311 21.5281C119.725 19.0436 121.635 16.3012 123.671 15.1468C127.814 12.7923 131.849 21.0404 131.849 21.0404Z" fill="black"/>
<path d="M118.31 21.5296C117.416 23.1075 116.615 24.7362 115.91 26.4074H109V20.5657C109 20.5657 110.912 16.9763 113.594 16.895C116.277 16.8137 118.31 21.5296 118.31 21.5296Z" fill="black"/>
<path d="M101.202 32.3048V32.3288H82.8983V56.4243H75.8604V25.2909H101.202V32.3048Z" fill="black"/>
<path d="M107.61 90.6014C107.894 90.6017 108.172 90.6812 108.414 90.8311C108.655 90.9809 108.85 91.1952 108.976 91.4497C109.102 91.7042 109.155 91.9889 109.128 92.2717C109.101 92.5545 108.996 92.8242 108.824 93.0504L95.8258 110.07C94.0612 110.436 91.3351 111.3 90.509 111.922C90.364 112.027 90.249 112.168 90.175 112.331C90.1011 112.494 90.0709 112.674 90.0874 112.852C90.1039 113.031 90.1665 113.202 90.269 113.348C90.3716 113.495 90.5106 113.613 90.6723 113.69L90.6638 113.708C89.6197 113.91 88.6008 114.226 87.6257 114.65C87.4039 114.78 87.2345 114.983 87.1473 115.224C87.0601 115.466 87.0605 115.73 87.1486 115.971C87.2366 116.212 87.4066 116.415 87.6289 116.543C87.8511 116.672 88.1114 116.718 88.3643 116.674C88.3883 116.674 88.4131 116.674 88.4417 116.668C88.2191 116.715 88.0023 116.786 87.7952 116.88C87.5722 116.964 87.3876 117.127 87.276 117.338C87.1644 117.548 87.1336 117.792 87.1893 118.024C87.245 118.256 87.3835 118.459 87.5786 118.596C87.7737 118.733 88.0121 118.794 88.2489 118.767C88.5888 118.786 89.1533 118.783 89.8292 118.767C89.6185 118.791 89.411 118.837 89.2098 118.903C89.0242 118.959 88.8623 119.074 88.7501 119.232C88.6379 119.39 88.5816 119.581 88.5904 119.774L88.4108 119.78L88.0469 120.261C87.9384 120.402 87.799 120.516 87.6394 120.595C87.4798 120.673 87.3042 120.714 87.1263 120.714H69.2109C68.9266 120.715 68.6478 120.636 68.4061 120.486C68.1645 120.336 67.9695 120.122 67.8432 119.867C67.7169 119.612 67.6644 119.327 67.6915 119.044C67.7187 118.761 67.8244 118.492 67.9968 118.265L74.6361 109.571L78.8666 104.035L80.3516 102.087L88.1282 91.9084C88.4384 91.5012 88.8385 91.1712 89.2973 90.9441C89.7561 90.717 90.2611 90.599 90.773 90.5991L107.61 90.6014ZM92.1465 107.07C93.6176 105.308 94.0171 103.219 93.0423 102.407C92.0675 101.595 90.0855 102.364 88.6198 104.126C87.1541 105.888 86.7484 107.98 87.7209 108.791C88.6934 109.602 90.6747 108.834 92.1465 107.07Z" fill="black"/>
<path d="M106.741 72.192L95.2777 86.439L83.8164 72.192H90.3821V63.4624V53.8152H100.176V55.1105V58.1487V63.4624V72.192H106.741Z" fill="#DFCBA9"/>
<path d="M97.3822 112.329C99.4045 112.655 98.6984 115.223 97.5749 115.394C97.3427 115.427 96.491 115.555 95.3884 115.718C93.0479 116.06 89.57 116.562 88.4434 116.665H88.438C88.4109 116.665 88.3861 116.665 88.3606 116.67C88.1077 116.715 87.8472 116.669 87.6248 116.541C87.4025 116.412 87.2324 116.21 87.1443 115.968C87.0563 115.727 87.056 115.463 87.1435 115.221C87.231 114.98 87.4006 114.777 87.6227 114.648C88.5982 114.225 89.6169 113.909 90.6609 113.706L90.6686 113.686C90.9357 113.816 91.2401 113.846 91.5273 113.771C92.9937 113.432 96.6784 112.59 97.3822 112.329Z" fill="#DFCBA9"/>
<path d="M96.3942 109.962C98.0743 109.69 98.0851 112.068 97.3821 112.329C96.6791 112.59 92.9944 113.432 91.528 113.774C91.241 113.847 90.9374 113.817 90.6701 113.69C90.5082 113.613 90.369 113.495 90.2663 113.349C90.1636 113.202 90.1009 113.031 90.0845 112.852C90.068 112.674 90.0982 112.494 90.1723 112.331C90.2463 112.168 90.3616 112.027 90.5068 111.922C91.3329 111.303 94.059 110.439 95.8235 110.07C96.0272 110.027 96.2223 109.989 96.3942 109.962Z" fill="#DFCBA9"/>
<path d="M94.7883 118.58C94.5956 118.585 94.3865 118.598 94.1589 118.607C92.9371 118.661 91.2779 118.735 89.9779 118.762C89.9715 118.761 89.965 118.761 89.9586 118.762C89.9297 118.759 89.9007 118.759 89.8718 118.762C89.8565 118.759 89.8408 118.759 89.8254 118.762C89.1518 118.773 88.5866 118.778 88.2451 118.762C88.009 118.787 87.7718 118.725 87.5778 118.588C87.3838 118.451 87.2462 118.248 87.1907 118.017C87.1352 117.786 87.1655 117.543 87.276 117.333C87.3866 117.123 87.5697 116.96 87.7914 116.875C87.9988 116.781 88.2155 116.71 88.4379 116.663H88.4434C89.5699 116.56 93.0509 116.057 95.3892 115.716C95.697 115.701 96.0015 115.784 96.2595 115.953C96.5175 116.121 96.7159 116.367 96.8264 116.655C96.937 116.942 96.9541 117.257 96.8754 117.555C96.7967 117.853 96.6261 118.119 96.3879 118.314C96.2011 118.447 95.9791 118.522 95.75 118.529C95.606 118.538 95.2583 118.555 94.7883 118.58Z" fill="#DFCBA9"/>
<path d="M94.7879 118.58C96.3519 118.8 96.3713 120.027 95.5374 120.551C95.3623 120.664 95.1566 120.721 94.9482 120.714C94.7608 120.714 94.215 120.714 93.5042 120.706C91.7714 120.69 90.4359 120.733 89.5176 120.632C89.2842 120.627 89.0607 120.538 88.8888 120.38C88.7169 120.222 88.6085 120.006 88.5838 119.774C88.5753 119.581 88.6316 119.39 88.7438 119.232C88.856 119.074 89.0177 118.958 89.2032 118.903C89.404 118.834 89.6118 118.789 89.8226 118.767C89.8378 118.764 89.8532 118.764 89.8683 118.767H89.955H89.9744C91.2775 118.738 92.9367 118.664 94.1554 118.612C94.3861 118.598 94.5951 118.585 94.7879 118.58Z" fill="#DFCBA9"/>
<path d="M71.9857 103.306C73.0309 104.634 74.6383 106.796 74.9178 107.816C74.9724 108.104 74.96 108.4 74.8814 108.682C74.8029 108.964 74.6603 109.224 74.4648 109.442C73.7045 110.313 72.788 111.034 71.7627 111.568L71.755 111.573C70.7597 112.332 69.5293 112.716 68.2794 112.657C67.5336 113.09 66.7374 113.43 65.9086 113.668C64.9338 113.978 63.3861 114.553 63.256 113.491C63.1259 112.43 65.2412 112.044 65.2412 112.044L65.3736 111.87L62.9928 110.021C62.9928 110.021 62.2897 110.873 61.3119 111.849C60.1822 112.97 58.6794 114.249 57.4561 114.534C56.5388 114.751 55.5795 114.71 54.6843 114.415C54.4341 114.337 54.1928 114.233 53.9642 114.105L51.9512 114.608C51.9241 114.331 51.9024 114.043 51.8807 113.738C51.7568 111.397 52.0989 109.055 52.8872 106.847C52.8872 106.847 57.4491 105.164 61.3266 103.375C65.204 101.586 66.1734 99.9458 68.7067 99.6469C69.9052 99.4746 71.1148 99.392 72.3256 99.3999C73.1049 99.4238 73.8814 99.5064 74.6483 99.6469C76.8163 100.019 80.0387 101.86 80.0387 101.86L80.3399 102.092L78.8549 104.039L78.6675 103.895C77.5487 103.472 75.2608 102.54 75.2608 102.54C74.1466 102.774 71.9857 103.306 71.9857 103.306Z" fill="#DFCBA9"/>
<path d="M42.9815 57.8443C43.6428 58.5717 44.3512 59.2548 45.1022 59.8891C46.0197 60.5975 47.1354 61.1085 48.1218 60.812C49.1082 60.5154 51.0229 58.7896 51.0229 58.7896C50.8435 58.8906 50.6544 58.9733 50.4585 59.0366C50.4585 59.0366 48.7203 58.4288 48.08 58.2926C47.5635 58.1819 44.585 57.9589 43.4345 57.8799C43.1519 57.8582 42.9808 57.8474 42.9808 57.8474L42.9815 57.8443ZM42.4396 65.3932C42.877 65.6209 46.1459 67.3041 47.6425 67.9754H47.6696L47.6503 68.2634L56.4318 71.2721C56.4318 71.2721 52.7851 77.2532 41.5902 77.3484C35.0509 77.4734 28.6715 75.3215 23.5439 71.2613L33.819 67.1338L33.9406 63.2455C33.9708 63.2455 34.9371 54.5351 32.5586 55.249C31.9877 55.4266 31.4834 55.7719 31.1115 56.24L30.9566 56.1556C29.5475 55.0887 27.1473 52.207 28.9854 49.2811C29.1186 49.06 29.2843 48.8603 29.477 48.6888C30.962 47.4151 32.7893 49.8107 32.7893 49.8107C39.0677 52.2379 41.4082 43.6577 42.1028 40.8092C42.1028 40.8092 48.6932 42.3732 50.7209 43.7088C50.9168 43.8365 51.1081 43.9751 51.297 44.1191C53.26 45.6277 54.5741 47.8278 54.9716 50.2713L54.9011 50.4153C54.8014 50.6256 54.6908 50.8306 54.5697 51.0293C55.0366 52.4763 55.0828 54.0261 54.7029 55.4983C54.37 56.5802 53.8893 57.6109 53.2744 58.5612C52.6883 59.4787 52.1069 60.1872 51.7329 60.8553C50.9153 62.3187 50.1519 64.2009 48.9007 65.3352C48.5667 65.6449 48.1806 65.8931 47.7602 66.0684C47.363 66.2333 46.9383 66.3218 46.5082 66.3293C45.3336 66.3172 44.1712 66.0891 43.0791 65.6565C42.8646 65.5721 42.6501 65.4854 42.438 65.3932H42.4396Z" fill="#DFCBA9"/>
<path d="M42.101 40.7867V40.8092C41.4042 43.6569 39.066 52.2371 32.7876 49.8099C32.7876 49.8099 30.9603 47.4151 29.4753 48.6887C29.4072 48.5145 28.4541 45.9014 30.1675 40.0349C30.8002 37.823 32.2172 35.9175 34.1533 34.6748C36.4148 33.2761 38.9663 32.4132 41.6125 32.1523C41.9168 32.112 42.2071 32.0818 42.4897 32.0547C46.5816 31.6746 53.2069 34.067 55.3787 40.3772C57.9616 47.8765 54.9714 50.269 54.9714 50.269C54.5727 47.8259 53.2578 45.6267 51.2945 44.1191C49.6465 42.3692 47.6017 41.0414 45.3328 40.2479C42.2102 39.3265 42.101 40.6025 42.101 40.7867Z" fill="black"/>
<path d="M54.6847 114.42L54.6437 114.54C54.6355 115.877 54.466 117.208 54.1389 118.504C54.0025 119.09 53.7042 119.627 53.2779 120.052C53.2779 120.052 52.3628 119.29 51.9478 114.611L53.9608 114.108C54.1911 114.236 54.4336 114.34 54.6847 114.42Z" fill="black"/>
<path d="M54.7193 58.8354C55.2079 60.2228 54.2493 62.023 52.8456 62.023C52.3469 62.033 51.857 61.8901 51.4419 61.6134C51.9352 60.7224 52.4802 59.861 53.074 59.0336C53.2916 58.6465 53.6253 58.2408 53.9621 57.7112C54.315 58.0074 54.5774 58.397 54.7193 58.8354Z" fill="black"/>
<path d="M51.2926 44.1192C51.1052 43.9752 50.9124 43.8366 50.7173 43.7088C48.6919 42.3756 42.0991 40.8092 42.0991 40.8092V40.7876C42.0991 40.6025 42.2075 39.3266 45.3301 40.2456C47.5996 41.0397 49.6446 42.3683 51.2926 44.1192Z" fill="black"/>
<path d="M50.4591 59.0313C49.7042 59.2431 48.9154 59.3067 48.1363 59.2187C46.524 58.9459 44.9471 58.494 43.4351 57.8715C44.5833 57.9489 47.5618 58.1734 48.0806 58.2841C48.7209 58.4258 50.4591 59.0313 50.4591 59.0313Z" fill="black"/>
<path d="M47.7605 66.0661L47.8008 66.1535L47.6707 67.9792H47.6436C46.1477 67.3087 42.8781 65.6255 42.4414 65.3971C42.6528 65.4923 42.8672 65.5767 43.0794 65.6549C44.1712 66.0894 45.3335 66.3196 46.5085 66.3339C46.939 66.3242 47.3638 66.2333 47.7605 66.0661Z" fill="black"/>
<path d="M41.6104 27.6942C43.2905 30.3034 41.7838 31.9758 41.6104 32.1523C38.9642 32.4133 36.4127 33.2761 34.1512 34.6748L34.1404 34.6563C29.4407 37.0866 26.4513 34.393 26.4513 34.393C25.9093 29.9178 29.4159 27.5796 32.612 26.2982C35.8081 25.0168 39.5276 24.4663 41.6104 27.6942Z" fill="black"/>
<path d="M32.9829 59.8697C32.4047 59.8665 31.8465 59.6585 31.4071 59.2828C30.9677 58.907 30.6756 58.3878 30.5827 57.8172C30.5075 57.474 30.5096 57.1182 30.589 56.7759C30.6685 56.4336 30.8231 56.1133 31.0418 55.8382C31.256 55.5684 31.5466 55.3695 31.8757 55.2676C32.1666 55.1431 32.4805 55.0814 32.7969 55.0865C33.1132 55.0916 33.425 55.1634 33.7117 55.2972C33.9985 55.431 34.2538 55.6237 34.4609 55.8629C34.668 56.1021 34.8224 56.3823 34.9139 56.6853C35.4024 58.0727 34.4439 59.8728 33.0402 59.8728C33.021 59.8735 33.0018 59.8725 32.9829 59.8697Z" fill="black"/>
<path d="M34.1443 34.6563L34.1551 34.6749C32.8777 35.5041 31.8131 36.622 31.0473 37.9384L30.9954 37.9089C30.9954 37.9089 26.9941 38.8675 26.4482 34.3931C26.4506 34.3931 29.4399 37.0867 34.1443 34.6563Z" fill="black"/>
<path d="M52.922 52.1017C52.4802 51.8394 51.9985 51.6513 51.4958 51.545C51.028 51.3843 50.5258 51.3514 50.041 51.4497" stroke="black" stroke-width="0.980065" stroke-linecap="round" stroke-linejoin="round"/>
<path d="M42.1016 50.2118C42.6985 50.1425 43.2994 50.1135 43.9001 50.1251C44.3941 50.0936 44.8877 50.193 45.331 50.4131" stroke="black" stroke-width="0.980065" stroke-linecap="round" stroke-linejoin="round"/>
<path d="M49.5658 49.6744C48.9464 50.4208 49.0795 51.3004 49.2561 52.3626C49.4326 53.4249 50.2773 54.6436 49.9815 55.5882C49.6858 56.5328 47.8554 56.6961 46.8481 56.2804" stroke="black" stroke-width="0.980065" stroke-linecap="round" stroke-linejoin="round"/>
<path d="M42.3894 65.3685C40.8825 64.6653 39.485 63.7482 38.2402 62.6455" stroke="black" stroke-width="0.980065" stroke-linecap="round" stroke-linejoin="round"/>
<path d="M53.2747 58.5613C52.6886 59.4788 52.1079 60.1872 51.7332 60.8554C50.9156 62.3195 50.1522 64.2009 48.901 65.336C48.5668 65.6454 48.1808 65.8936 47.7605 66.0692C47.3631 66.2334 46.9385 66.3217 46.5085 66.3293C45.3335 66.3158 44.1711 66.0859 43.0794 65.6511C42.8672 65.5737 42.6528 65.4877 42.4414 65.3933" stroke="black" stroke-width="0.980065" stroke-linecap="round" stroke-linejoin="round"/>
<path d="M54.8987 50.4131C54.719 50.7847 54.5673 51.0263 54.5673 51.0263C55.0337 52.4736 55.0799 54.0235 54.7005 55.496C54.3668 56.5776 53.8861 57.6082 53.272 58.559" stroke="black" stroke-width="0.980065" stroke-linecap="round" stroke-linejoin="round"/>
<path d="M41.0288 48.1918C41.0288 48.1918 43.4344 47.0405 45.5311 47.6761C47.1733 48.1755 47.1949 48.7671 47.1949 48.7973" stroke="black" stroke-width="0.980065" stroke-linecap="round" stroke-linejoin="round"/>
<path d="M54.5239 48.9683C54.0383 48.8602 53.5389 48.8281 53.0435 48.8731C52.3071 48.9179 51.5754 49.0215 50.8555 49.1828" stroke="black" stroke-width="0.980065" stroke-linecap="round" stroke-linejoin="round"/>
<path d="M42.7832 57.6222C42.7832 57.6222 42.8606 57.7035 42.9837 57.8444C43.6452 58.5716 44.3536 59.2547 45.1044 59.8892C46.0219 60.5976 47.1384 61.1086 48.124 60.8121C49.1096 60.5156 51.0298 58.7898 51.0298 58.7898C50.85 58.8907 50.6607 58.9734 50.4646 59.0368C49.7096 59.2482 48.9209 59.3118 48.1418 59.2241C46.5308 58.9499 44.9553 58.4973 43.4444 57.8746C43.1185 57.7492 42.8908 57.6601 42.8149 57.6299" stroke="black" stroke-width="0.980065" stroke-linecap="round" stroke-linejoin="round"/>
<path d="M47.7982 66.156L47.6681 67.9778L47.6487 68.2658L47.521 70.0497" stroke="black" stroke-width="0.980065" stroke-linecap="round" stroke-linejoin="round"/>
<path d="M34.4037 58.9879L33.8176 67.1392L23.5425 71.266C28.671 75.3246 35.0497 77.4765 41.5887 77.3539C52.7836 77.2587 56.4304 71.2768 56.4304 71.2768L47.6488 68.2681L47.6078 68.2573" stroke="black" stroke-width="0.980065" stroke-linecap="round" stroke-linejoin="round"/>
<path d="M32.7879 49.8099C32.7879 49.8099 30.9607 47.4151 29.4756 48.6888C29.2826 48.8598 29.1168 49.0592 28.984 49.2803C27.1459 52.2077 29.5461 55.0872 30.9552 56.1557" stroke="black" stroke-width="0.980065" stroke-linecap="round" stroke-linejoin="round"/>
<path d="M32.7879 49.81C39.0663 52.2373 41.4069 43.657 42.1014 40.8093C42.1014 40.8093 48.6918 42.3733 50.7196 43.7089C50.9154 43.8366 51.1067 43.9752 51.2956 44.1192C53.259 45.6267 54.5736 47.826 54.9717 50.2691C54.9717 50.2691 57.9642 47.8767 55.3821 40.3773C53.2095 34.0671 46.5843 31.6747 42.4924 32.0541C42.2105 32.0812 41.9171 32.1114 41.6159 32.1516C38.9697 32.4125 36.4182 33.2754 34.1568 34.6742C32.2207 35.9168 30.8037 37.8224 30.1709 40.0343C28.4575 45.9023 29.4106 48.5139 29.4787 48.6881V48.6958" fill="black"/>
<path d="M32.7879 49.81C39.0663 52.2373 41.4069 43.657 42.1014 40.8093C42.1014 40.8093 48.6918 42.3733 50.7196 43.7089C50.9154 43.8366 51.1067 43.9752 51.2956 44.1192C53.259 45.6267 54.5736 47.826 54.9717 50.2691C54.9717 50.2691 57.9642 47.8767 55.3821 40.3773C53.2095 34.0671 46.5843 31.6747 42.4924 32.0541C42.2105 32.0812 41.9171 32.1114 41.6159 32.1516C38.9697 32.4125 36.4182 33.2754 34.1568 34.6742C32.2207 35.9168 30.8037 37.8224 30.1709 40.0343C28.4575 45.9023 29.4106 48.5139 29.4787 48.6881V48.6958" stroke="black" stroke-width="0.980065" stroke-linecap="round" stroke-linejoin="round"/>
<path d="M41.5965 32.1687L41.6128 32.1525C41.7839 31.9759 43.2906 30.3066 41.6128 27.6943C39.53 24.4603 35.8129 25.017 32.6144 26.296C29.416 27.5751 25.9048 29.9157 26.4529 34.3901C27.0011 38.8644 31.0009 37.909 31.0009 37.909" fill="black"/>
<path d="M41.5965 32.1687L41.6128 32.1525C41.7839 31.9759 43.2906 30.3066 41.6128 27.6943C39.53 24.4603 35.8129 25.017 32.6144 26.296C29.416 27.5751 25.9048 29.9157 26.4529 34.3901C27.0011 38.8644 31.0009 37.909 31.0009 37.909" stroke="black" stroke-width="0.980065" stroke-linecap="round" stroke-linejoin="round"/>
<path d="M31.8703 55.2653C31.542 55.368 31.2519 55.5664 31.0372 55.8352C30.8183 56.1103 30.6635 56.4307 30.5841 56.7732C30.5047 57.1157 30.5026 57.4716 30.5781 57.8149C30.6709 58.3856 30.9629 58.9049 31.4023 59.2807C31.8417 59.6565 32.4001 59.8643 32.9782 59.8675C32.9973 59.8687 33.0165 59.8687 33.0355 59.8675C34.4393 59.8675 35.3978 58.0673 34.9084 56.6799C34.8172 56.3769 34.6629 56.0966 34.4557 55.8574C34.2485 55.6182 33.9931 55.4255 33.7063 55.292C33.4194 55.1584 33.1075 55.087 32.7911 55.0824C32.4747 55.0778 32.1609 55.1401 31.8703 55.2653Z" stroke="black" stroke-width="0.980065" stroke-linecap="round" stroke-linejoin="round"/>
<path d="M51.4419 61.6134C51.857 61.89 52.3469 62.033 52.8456 62.0229C54.2501 62.0229 55.211 60.2228 54.7193 58.8353C54.5782 58.3974 54.3156 58.0086 53.9621 57.7142" stroke="black" stroke-width="0.980065" stroke-linecap="round" stroke-linejoin="round"/>
<path d="M42.9873 57.842C42.9873 57.842 43.1584 57.8529 43.4402 57.8746C44.5892 57.952 47.5678 58.1757 48.0857 58.2872C48.7268 58.4227 50.4643 59.0313 50.4643 59.0313" stroke="black" stroke-width="0.980065" stroke-linecap="round" stroke-linejoin="round"/>
<path d="M31.9923 50.7739C31.2459 50.3589 30.2216 50.1057 29.9615 51.7518C29.747 53.1284 31.2126 54.7923 32.5567 55.2514" stroke="black" stroke-width="0.980065" stroke-linecap="round" stroke-linejoin="round"/>
<path d="M42.3896 65.3685C42.3896 65.3685 42.409 65.377 42.4384 65.3933C42.8759 65.6209 46.1448 67.3042 47.6414 67.9754" stroke="black" stroke-width="0.980065" stroke-linecap="round" stroke-linejoin="round"/>
<path d="M26.4507 34.3931C26.4507 34.3931 29.4401 37.089 34.1406 34.6563" stroke="black" stroke-width="0.980065" stroke-linecap="round" stroke-linejoin="round"/>
<path d="M23.5455 71.266C23.5455 71.266 13.3943 76.0315 11.5686 80.5036C8.7039 87.5144 9.29001 109.551 9.0678 115.113C8.84559 120.674 9.94967 129.359 14.5092 131.25C14.8972 131.408 15.3015 131.523 15.7147 131.592C20.6103 132.48 29.3857 128.736 39.78 125.059C51.0942 121.06 53.2806 120.052 53.2806 120.052C53.2806 120.052 52.3655 119.289 51.9497 114.611C51.9226 114.334 51.9009 114.046 51.8792 113.741C51.7564 111.4 52.0998 109.058 52.8896 106.851C52.8896 106.851 31.957 112.61 27.2085 114.005C22.46 115.401 21.702 115.591 21.702 115.591" stroke="black" stroke-width="0.980065" stroke-linecap="round" stroke-linejoin="round"/>
<path d="M56.4302 71.2745C56.4302 71.2745 66.3375 72.9578 68.908 78.8552C71.4785 84.7527 72.348 98.9207 72.348 98.9207" stroke="black" stroke-width="0.980065" stroke-linecap="round" stroke-linejoin="round"/>
<path d="M54.6431 114.54C54.6349 115.877 54.4654 117.208 54.1383 118.504C54.0019 119.09 53.7036 119.627 53.2773 120.052" stroke="black" stroke-width="0.980065" stroke-linecap="round" stroke-linejoin="round"/>
<path d="M52.8896 106.847C52.8896 106.847 57.4508 105.164 61.329 103.374C65.2072 101.585 66.1758 99.945 68.7092 99.6462C69.9076 99.4739 71.1173 99.3913 72.328 99.3992C73.1074 99.4231 73.8838 99.5056 74.6508 99.6462C76.8187 100.018 80.0411 101.859 80.0411 101.859" stroke="black" stroke-width="0.980065" stroke-linecap="round" stroke-linejoin="round"/>
<path d="M51.9478 114.61L53.9608 114.108C54.1894 114.236 54.4307 114.339 54.6809 114.417C55.5763 114.711 56.5353 114.752 57.4527 114.537C58.6721 114.252 60.1788 112.973 61.3084 111.851C62.2863 110.879 62.9894 110.023 62.9894 110.023L65.3709 111.87L66.1142 112.448" stroke="black" stroke-width="0.980065" stroke-linecap="round" stroke-linejoin="round"/>
<path d="M66.789 108.145C67.6316 109.183 68.3585 110.309 68.9569 111.504C69.104 111.938 68.7803 112.329 68.2778 112.661C67.5323 113.092 66.7363 113.43 65.9079 113.667C64.9331 113.977 63.3854 114.553 63.2553 113.491C63.1252 112.428 65.2397 112.043 65.2397 112.043" stroke="black" stroke-width="0.980065" stroke-linecap="round" stroke-linejoin="round"/>
<path d="M71.7549 111.58C70.7595 112.338 69.5291 112.721 68.2793 112.664" stroke="black" stroke-width="0.980065" stroke-linecap="round" stroke-linejoin="round"/>
<path d="M69.9146 106.1C69.9146 106.1 71.9454 108.74 72.3147 110.027C72.3834 110.309 72.3687 110.606 72.2726 110.881C72.1764 111.156 72.0028 111.397 71.7727 111.575" stroke="black" stroke-width="0.980065" stroke-linecap="round" stroke-linejoin="round"/>
<path d="M71.0845 102.182C71.0845 102.182 71.4646 102.641 71.9857 103.306C73.0309 104.634 74.6383 106.796 74.9178 107.816C74.9724 108.104 74.96 108.4 74.8814 108.682C74.8029 108.964 74.6603 109.224 74.4649 109.442C73.7045 110.313 72.788 111.034 71.7627 111.568L71.755 111.574" stroke="black" stroke-width="0.980065" stroke-linecap="round" stroke-linejoin="round"/>
<path d="M42.1016 40.7868C42.1016 40.6025 42.2107 39.3265 45.3333 40.2448C47.6023 41.0384 49.647 42.3661 51.295 44.116C51.2998 44.1227 51.3053 44.129 51.3113 44.1346" stroke="black" stroke-width="0.980065" stroke-linecap="round" stroke-linejoin="round"/>
<path d="M36.3994 35.5197C36.3994 35.5197 41.9655 35.8967 42.0987 40.7846V40.807" fill="black"/>
<path d="M36.3994 35.5197C36.3994 35.5197 41.9655 35.8967 42.0987 40.7846V40.807" stroke="black" stroke-width="0.980065" stroke-linecap="round" stroke-linejoin="round"/>
<path d="M71.9858 103.306C71.9858 103.306 74.1468 102.771 75.2632 102.538C75.2632 102.538 77.5519 103.472 78.67 103.893" stroke="black" stroke-width="0.980065" stroke-linecap="round" stroke-linejoin="round"/>
<path d="M61.312 88.7059C61.312 88.7059 64.8883 92.4045 64.9316 95.9343C65.0277 98.2025 64.4422 100.448 63.2507 102.38" stroke="black" stroke-width="0.980065" stroke-linecap="round" stroke-linejoin="round"/>
<path d="M47.8484 94.3402C48.4773 95.88 48.7382 97.5452 48.6105 99.2036C48.4828 100.862 47.97 102.468 47.1129 103.893C46.2586 105.487 44.9145 106.765 43.2788 107.537" stroke="black" stroke-width="0.980065" stroke-linecap="round" stroke-linejoin="round"/>
<path d="M22.5625 113.092C22.5625 113.092 25.5743 112.297 27.208 114.005L27.5502 100.547L31.4114 98.4191" stroke="black" stroke-width="0.980065" stroke-linecap="round" stroke-linejoin="round"/>
<path d="M28.1013 95.7981L27.5508 100.545" stroke="black" stroke-width="0.980065" stroke-linecap="round" stroke-linejoin="round"/>
<path d="M61.3119 111.852C61.3119 111.852 62.4578 116.42 60.8528 118.533H54.377" stroke="black" stroke-width="0.980065" stroke-linecap="round" stroke-linejoin="round"/>
<path d="M60.8564 118.533C60.8564 118.533 62.3639 120.823 64.3948 124.629C67.58 130.6 72.0599 140.313 74.045 150.799L74.0528 150.845" stroke="black" stroke-width="0.980065" stroke-linecap="round" stroke-linejoin="round"/>
<path d="M15.6904 131.724C12.9048 137.835 10.8294 144.245 9.50488 150.829V150.848" stroke="black" stroke-width="0.980065" stroke-linecap="round" stroke-linejoin="round"/>
<path d="M9.59766 150.845H73.8164" stroke="black" stroke-width="0.980065" stroke-linecap="round" stroke-linejoin="round"/>
<path d="M90.6694 113.686C90.9364 113.816 91.2409 113.846 91.528 113.771C92.9991 113.432 96.6784 112.59 97.3821 112.326C98.0859 112.062 98.0743 109.69 96.3934 109.958C96.22 109.986 96.0272 110.023 95.8236 110.065C94.0583 110.431 91.3329 111.295 90.5068 111.917C90.3617 112.022 90.2464 112.163 90.1724 112.326C90.0983 112.49 90.068 112.669 90.0844 112.848C90.1008 113.026 90.1634 113.197 90.2659 113.345C90.3685 113.492 90.5075 113.609 90.6694 113.686Z" stroke="black" stroke-width="0.980065" stroke-linecap="round" stroke-linejoin="round"/>
<path d="M88.4434 116.665C89.5699 116.562 93.0509 116.06 95.3884 115.718C96.4909 115.558 97.338 115.43 97.5749 115.394C98.6983 115.223 99.4075 112.655 97.3821 112.329" stroke="black" stroke-width="0.980065" stroke-linecap="round" stroke-linejoin="round"/>
<path d="M90.6648 113.706C89.6204 113.907 88.6015 114.223 87.6266 114.648C87.4045 114.777 87.2349 114.98 87.1474 115.221C87.0599 115.463 87.0602 115.727 87.1483 115.968C87.2363 116.21 87.4064 116.412 87.6287 116.541C87.8511 116.669 88.1116 116.715 88.3645 116.67C88.3893 116.67 88.414 116.67 88.4419 116.665" stroke="black" stroke-width="0.980065" stroke-linecap="round" stroke-linejoin="round"/>
<path d="M89.9751 118.764C91.2782 118.735 92.9374 118.661 94.1561 118.609C94.3837 118.601 94.5927 118.587 94.7855 118.582C95.2555 118.557 95.6031 118.539 95.7495 118.533C95.9784 118.525 96.2 118.45 96.3874 118.319C96.6256 118.123 96.7962 117.858 96.8749 117.56C96.9536 117.262 96.9365 116.947 96.8259 116.659C96.7154 116.371 96.517 116.126 96.259 115.957C96.001 115.789 95.6965 115.706 95.3887 115.72" stroke="black" stroke-width="0.980065" stroke-linecap="round" stroke-linejoin="round"/>
<path d="M89.8687 118.764H89.9559" stroke="black" stroke-width="0.980065" stroke-linecap="round" stroke-linejoin="round"/>
<path d="M88.4436 116.665H88.4382C88.2156 116.712 87.9988 116.783 87.7917 116.877C87.5687 116.961 87.384 117.124 87.2725 117.334C87.1609 117.545 87.1301 117.789 87.1858 118.021C87.2415 118.253 87.3799 118.456 87.5751 118.593C87.7702 118.73 88.0086 118.791 88.2454 118.764C88.5845 118.783 89.149 118.78 89.8257 118.764" stroke="black" stroke-width="0.980065" stroke-linecap="round" stroke-linejoin="round"/>
<path d="M89.9752 118.764C89.9688 118.763 89.9622 118.763 89.9558 118.764C89.927 118.762 89.898 118.762 89.8691 118.764C89.8537 118.761 89.838 118.761 89.8226 118.764C89.612 118.787 89.4044 118.833 89.2032 118.899C89.0177 118.955 88.856 119.071 88.7438 119.229C88.6316 119.387 88.5753 119.578 88.5838 119.771C88.6082 120.004 88.7166 120.219 88.8887 120.377C89.0608 120.535 89.2848 120.625 89.5184 120.629C90.4359 120.73 91.7722 120.686 93.5042 120.703C94.2157 120.708 94.7585 120.71 94.949 120.71C95.1572 120.717 95.3625 120.66 95.5382 120.548C96.3713 120.021 96.3527 118.793 94.7887 118.577C94.7834 118.575 94.7777 118.575 94.7724 118.577" stroke="black" stroke-width="0.980065" stroke-linecap="round" stroke-linejoin="round"/>
<path d="M88.4077 119.782L88.0438 120.263C87.9354 120.404 87.796 120.518 87.6364 120.597C87.4767 120.676 87.3012 120.717 87.1232 120.717H69.2055C68.9212 120.717 68.6425 120.638 68.4008 120.488C68.1591 120.338 67.9641 120.124 67.8378 119.869C67.7115 119.614 67.659 119.33 67.6862 119.047C67.7133 118.763 67.8191 118.494 67.9915 118.268L74.6307 109.573L78.8612 104.037L80.3462 102.09L88.1228 91.9106C88.4331 91.5034 88.8332 91.1734 89.2919 90.9463C89.7507 90.7192 90.2557 90.6012 90.7676 90.6013H107.613C107.897 90.6014 108.176 90.6809 108.417 90.8307C108.658 90.9806 108.853 91.1949 108.979 91.4495C109.105 91.7041 109.158 91.9888 109.131 92.2717C109.104 92.5545 108.998 92.8242 108.826 93.0503L95.8289 110.07" stroke="black" stroke-width="0.980065" stroke-linecap="round" stroke-linejoin="round"/>
<path d="M90.0779 92.527L69.6973 119.212" stroke="black" stroke-width="0.980065" stroke-linecap="round" stroke-linejoin="round"/>
<path d="M92.1466 107.07C90.6756 108.834 88.6958 109.603 87.721 108.794C86.7462 107.985 87.1504 105.894 88.6199 104.129C90.0895 102.365 92.0708 101.598 93.0424 102.41C94.0141 103.223 93.6154 105.308 92.1466 107.07Z" stroke="black" stroke-width="0.980065" stroke-linecap="round" stroke-linejoin="round"/>
<path d="M90.3821 63.4624V72.192H83.8164L95.2777 86.439L106.741 72.192H100.176V63.4624V58.1487V55.1105V53.8152H90.3821V63.4624Z" stroke="black" stroke-width="0.980065" stroke-linecap="round" stroke-linejoin="round"/>
<path d="M131.849 26.4066V29.8497H109V26.4066V20.5657V7H131.849V21.0379V26.4066Z" stroke="black" stroke-width="0.980065" stroke-linecap="round" stroke-linejoin="round"/>
<path d="M109 26.4066H115.91H131.849" stroke="black" stroke-width="0.980065" stroke-linecap="round" stroke-linejoin="round"/>
<path d="M115.911 26.4067C116.615 24.7355 117.417 23.1068 118.311 21.5289C119.725 19.0443 121.635 16.3019 123.671 15.1483C127.812 12.7938 131.846 21.0403 131.846 21.0403" stroke="black" stroke-width="0.980065" stroke-linecap="round" stroke-linejoin="round"/>
<path d="M109 20.5657C109 20.5657 110.912 16.9763 113.594 16.895C116.277 16.8137 118.31 21.5296 118.31 21.5296" stroke="black" stroke-width="0.980065" stroke-linecap="round" stroke-linejoin="round"/>
<path d="M117.703 12.2788C117.703 12.5602 117.759 12.8388 117.866 13.0987C117.974 13.3586 118.132 13.5948 118.331 13.7937C118.53 13.9926 118.766 14.1504 119.026 14.2581C119.286 14.3658 119.564 14.4212 119.845 14.4212C120.127 14.4212 120.405 14.3658 120.665 14.2581C120.925 14.1504 121.161 13.9926 121.36 13.7937C121.559 13.5948 121.717 13.3586 121.825 13.0987C121.932 12.8388 121.988 12.5602 121.988 12.2788C121.988 11.9975 121.932 11.7189 121.825 11.459C121.717 11.1991 121.559 10.9629 121.36 10.764C121.161 10.565 120.925 10.4072 120.665 10.2996C120.405 10.1919 120.127 10.1365 119.845 10.1365C119.564 10.1365 119.286 10.1919 119.026 10.2996C118.766 10.4072 118.53 10.565 118.331 10.764C118.132 10.9629 117.974 11.1991 117.866 11.459C117.759 11.7189 117.703 11.9975 117.703 12.2788Z" stroke="black" stroke-width="0.980065" stroke-linecap="round" stroke-linejoin="round"/>
<path d="M90.3819 63.4623H82.8979V56.4243V32.3289H101.202L108.24 40.858V63.4623H100.422" stroke="black" stroke-width="0.980065" stroke-linecap="round" stroke-linejoin="round"/>
<path d="M101.202 32.3048V25.2909H75.8604V56.4243H82.8983" stroke="black" stroke-width="0.980065" stroke-linecap="round" stroke-linejoin="round"/>
<path d="M101.202 32.3048V32.3288V40.858H108.24" stroke="black" stroke-width="0.980065" stroke-linecap="round" stroke-linejoin="round"/>
<path d="M86.8325 45.9922H104.3" stroke="black" stroke-width="0.980065" stroke-linecap="round" stroke-linejoin="round"/>
<path d="M86.8325 49.0334H104.3" stroke="black" stroke-width="0.980065" stroke-linecap="round" stroke-linejoin="round"/>
<path d="M86.8325 52.0715H104.3" stroke="black" stroke-width="0.980065" stroke-linecap="round" stroke-linejoin="round"/>
<path d="M100.176 55.1105H104.3" stroke="black" stroke-width="0.980065" stroke-linecap="round" stroke-linejoin="round"/>
<path d="M86.8325 55.1105H90.1726" stroke="black" stroke-width="0.980065" stroke-linecap="round" stroke-linejoin="round"/>
<path d="M100.176 58.1487H104.3" stroke="black" stroke-width="0.980065" stroke-linecap="round" stroke-linejoin="round"/>
<path d="M86.8325 58.1487H90.1726" stroke="black" stroke-width="0.980065" stroke-linecap="round" stroke-linejoin="round"/>
<path d="M86.8325 42.954H104.3" stroke="black" stroke-width="0.980065" stroke-linecap="round" stroke-linejoin="round"/>
<path d="M86.8325 39.9158H100.957" stroke="black" stroke-width="0.980065" stroke-linecap="round" stroke-linejoin="round"/>
<path d="M64.3877 124.629C64.3877 124.629 74.0488 123.533 87.1205 120.717" stroke="black" stroke-width="0.980065" stroke-linecap="round" stroke-linejoin="round"/>
<path d="M123.44 45.3301L121.042 48.52" stroke="black" stroke-width="0.980065" stroke-linecap="round" stroke-linejoin="round"/>
<path d="M123.837 48.1236L120.646 45.7266" stroke="black" stroke-width="0.980065" stroke-linecap="round" stroke-linejoin="round"/>
<path d="M90.0641 12.5243L87.667 15.7142" stroke="black" stroke-width="0.980065" stroke-linecap="round" stroke-linejoin="round"/>
<path d="M90.4599 15.3177L87.27 12.9207" stroke="black" stroke-width="0.980065" stroke-linecap="round" stroke-linejoin="round"/>
<path d="M67.6658 62.4117L65.2656 65.6048" stroke="black" stroke-width="0.980065" stroke-linecap="round" stroke-linejoin="round"/>
<path d="M68.0617 65.2083L64.8687 62.8081" stroke="black" stroke-width="0.980065" stroke-linecap="round" stroke-linejoin="round"/>
</svg>
